<svg width="201" height="77" viewBox="0 0 201 77" fill="none" xmlns="http://www.w3.org/2000/svg">
<path d="M58.5136 60V29.6737C58.5136 28.9033 58.5324 28.0296 58.57 27.0526C58.6076 26.0755 58.7579 25.0891 59.021 24.0932C59.3028 23.0974 59.8101 22.1955 60.5429 21.3875C61.4824 20.3353 62.497 19.6213 63.5868 19.2455C64.6954 18.8509 65.7664 18.6443 66.7998 18.6255C67.8332 18.5879 68.7163 18.5691 69.4491 18.5691H73.2258V24.7696H69.731C68.5285 24.7696 67.6359 25.0797 67.0535 25.6997C66.471 26.301 66.1798 27.0244 66.1798 27.8699V60H58.5136ZM53.7223 35.4797V29.561H73.2258V35.4797H53.7223ZM76.8554 25.3333V18.5691H84.5216V25.3333H76.8554ZM76.8554 60V29.561H84.5216V60H76.8554ZM108.98 60C106.875 60.3946 104.809 60.5637 102.779 60.5073C100.769 60.4697 98.965 60.1221 97.3679 59.4645C95.7896 58.7881 94.587 57.7077 93.7603 56.2233C93.0087 54.8329 92.6141 53.4237 92.5765 51.9957C92.539 50.5489 92.5202 48.9142 92.5202 47.0916V21.1057H100.186V46.6406C100.186 47.8244 100.196 48.8954 100.214 49.8537C100.252 50.7931 100.449 51.5447 100.806 52.1084C101.483 53.1794 102.563 53.7619 104.048 53.8558C105.532 53.9498 107.176 53.8746 108.98 53.6304V60ZM87.3343 35.4797V29.561H108.98V35.4797H87.3343ZM113.508 60V29.561H120.272V37.0016L119.54 36.0434C119.934 34.9911 120.46 34.0329 121.118 33.1686C121.776 32.3042 122.584 31.5902 123.542 31.0266C124.275 30.5756 125.073 30.228 125.937 29.9837C126.802 29.7207 127.694 29.561 128.615 29.5046C129.536 29.4294 130.456 29.4482 131.377 29.561V36.7198C130.532 36.4567 129.545 36.3722 128.418 36.4661C127.309 36.5413 126.304 36.7949 125.402 37.2271C124.5 37.6405 123.739 38.1948 123.119 38.89C122.499 39.5664 122.029 40.3743 121.71 41.3138C121.39 42.2345 121.231 43.2773 121.231 44.4423V60H113.508ZM145.814 60.9019C143.427 60.9019 141.483 60.4979 139.979 59.69C138.476 58.882 137.302 57.858 136.456 56.6179C135.63 55.3778 135.038 54.0907 134.681 52.7566C134.324 51.4038 134.108 50.1731 134.033 49.0645C133.957 47.9559 133.92 47.148 133.92 46.6406V29.561H141.699V43.935C141.699 44.6302 141.736 45.5227 141.811 46.6125C141.887 47.6835 142.121 48.7639 142.516 49.8537C142.911 50.9435 143.549 51.8547 144.433 52.5875C145.334 53.3203 146.603 53.6867 148.237 53.6867C148.895 53.6867 149.6 53.5834 150.351 53.3767C151.103 53.17 151.807 52.7754 152.465 52.193C153.123 51.5917 153.658 50.718 154.072 49.5718C154.504 48.4069 154.72 46.8849 154.72 45.006L159.117 47.0916C159.117 49.4967 158.628 51.7514 157.651 53.8558C156.674 55.9603 155.199 57.6607 153.226 58.9572C151.272 60.2537 148.801 60.9019 145.814 60.9019ZM155.678 60V49.91H154.72V29.561H162.442V60H155.678ZM188.808 60V45.626C188.808 44.9308 188.771 44.0477 188.696 42.9767C188.62 41.8869 188.385 40.7971 187.991 39.7073C187.596 38.6175 186.948 37.7062 186.046 36.9734C185.163 36.2406 183.904 35.8743 182.269 35.8743C181.612 35.8743 180.907 35.9776 180.156 36.1843C179.404 36.391 178.699 36.7949 178.042 37.3962C177.384 37.9787 176.839 38.843 176.407 39.9892C175.994 41.1353 175.787 42.6573 175.787 44.555L171.39 42.4694C171.39 40.0643 171.879 37.8096 172.856 35.7051C173.833 33.6007 175.299 31.9003 177.253 30.6038C179.226 29.3073 181.706 28.6591 184.693 28.6591C187.08 28.6591 189.024 29.0631 190.527 29.871C192.031 30.679 193.196 31.703 194.022 32.9431C194.868 34.1832 195.469 35.4797 195.826 36.8325C196.183 38.1666 196.399 39.3879 196.474 40.4965C196.55 41.6051 196.587 42.413 196.587 42.9203V60H188.808ZM168.008 60V29.561H174.829V39.6509H175.787V60H168.008Z" fill="white"/>
<path d="M0 24.3907C0 23.792 0.485328 23.3066 1.08401 23.3066H13.0081C13.6068 23.3066 14.0921 23.792 14.0921 24.3907V28.7267C14.0921 32.6181 10.9375 35.7728 7.04607 35.7728H1.08401C0.485329 35.7728 0 35.2874 0 34.6888V24.3907Z" fill="white"/>
<path d="M0 50.4063C0 49.8076 0.485328 49.3223 1.08401 49.3223H13.0081C13.6068 49.3223 14.0921 49.8076 14.0921 50.4063V54.7423C14.0921 58.6338 10.9375 61.7884 7.04607 61.7884H1.08401C0.485329 61.7884 0 61.3031 0 60.7044V50.4063Z" fill="white"/>
<path d="M14.2646 11.9326C29.2012 12.3111 41.1932 24.5387 41.1934 39.5664L41.1846 40.2793C41.1793 40.4866 41.0069 40.6504 40.7995 40.6504H29.7724C29.186 40.6504 28.7275 40.1528 28.7275 39.5664C28.7274 31.5496 22.5103 24.9839 14.6349 24.4278C14.0377 24.3856 13.5508 23.9043 13.5508 23.3057V11.9248C13.5508 11.9243 13.5512 11.9238 13.5518 11.9238L14.2646 11.9326Z" fill="white"/>
<path d="M14.2646 37.9492C29.2011 38.3277 41.1931 50.5554 41.1934 65.583L41.1846 66.2959C41.1793 66.5032 41.0069 66.667 40.7995 66.667H29.7724C29.186 66.667 28.7275 66.1694 28.7275 65.583C28.7273 57.5663 22.5103 51.0005 14.6349 50.4444C14.0377 50.4022 13.5508 49.9209 13.5508 49.3223V37.9414C13.5508 37.9409 13.5512 37.9404 13.5518 37.9404L14.2646 37.9492Z" fill="white"/>
</svg>
